<svg width="132" height="132" viewBox="0 0 132 132" fill="none" xmlns="http://www.w3.org/2000/svg">
<path d="M100.951 17.8193C100.323 16.9542 99.1148 16.7618 98.2507 17.3893C97.3857 18.0157 97.1933 19.2252 97.8207 20.0892C102.695 26.8105 105.272 34.7664 105.272 43.097C105.272 51.0912 102.907 58.9394 98.435 65.7946C91.8215 75.9308 87.4105 83.3832 86.3893 94.1922C86.2675 95.4772 85.3813 96.5034 84.206 96.8348C84.1284 96.8479 84.0509 96.867 83.9764 96.8902C83.786 96.9274 83.5887 96.9476 83.3872 96.9476H48.6974C48.4959 96.9476 48.2986 96.9274 48.1072 96.8902C48.0327 96.867 47.9561 96.8489 47.8776 96.8348C46.7033 96.5034 45.8161 95.4772 45.6953 94.1922C44.6741 83.3832 40.2631 75.9308 33.6496 65.7946C29.1761 58.9394 26.8125 51.0912 26.8125 43.097C26.8125 21.4659 44.4112 3.86719 66.0423 3.86719C76.0255 3.86719 85.5363 7.61957 92.8256 14.4325C93.6061 15.1616 94.8287 15.1203 95.5588 14.3398C96.2879 13.5603 96.2466 12.3367 95.4662 11.6066C87.4589 4.12198 77.0094 0 66.0423 0C42.2782 0 22.9453 19.3329 22.9453 43.097C22.9453 51.8435 25.5265 60.4228 30.4108 67.9074C36.7091 77.5613 40.9076 84.631 41.8452 94.5558C42.0778 97.014 43.5482 99.0564 45.6086 100.089V118.236C45.6086 120.639 47.1233 122.696 49.2482 123.499C49.4376 128.219 53.336 132 58.1015 132H73.9831C78.7486 132 82.647 128.219 82.8364 123.499C84.9613 122.696 86.476 120.64 86.476 118.236V100.089C88.5364 99.0564 90.0078 97.015 90.2394 94.5558C91.177 84.631 95.3755 77.5613 101.674 67.9084C106.558 60.4228 109.139 51.8435 109.139 43.097C109.139 33.9456 106.308 25.2042 100.951 17.8193ZM61.591 108.327H82.6088V111.854H49.4758V108.327H53.8576C54.9261 108.327 55.7912 107.46 55.7912 106.393C55.7912 105.324 54.9261 104.459 53.8576 104.459H49.4758V100.815H82.6088V104.459H61.592C60.5235 104.459 59.6584 105.324 59.6584 106.393C59.6584 107.46 60.5235 108.327 61.591 108.327ZM80.9451 119.992C80.933 119.991 80.9219 119.991 80.9098 119.991C80.9018 119.991 80.8937 119.991 80.8857 119.991C80.8585 119.991 80.8313 119.992 80.8041 119.994H51.2805C51.2533 119.993 51.2261 119.992 51.1989 119.991C51.1788 119.991 51.1577 119.991 51.1375 119.991C50.213 119.941 49.4748 119.173 49.4748 118.236V115.722H82.6088V118.236C82.6088 119.174 81.8706 119.942 80.9451 119.992ZM73.9831 128.133H58.1015C55.5928 128.133 53.5102 126.274 53.1597 123.861H78.9249C78.5744 126.274 76.4918 128.133 73.9831 128.133Z" fill="#00296B"/>
<path d="M87.2703 54.2211C87.3377 53.9835 87.5653 53.8173 87.8231 53.8173H89.3892C91.8424 53.8173 93.8384 51.8223 93.8384 49.369V46.5029C93.8384 44.0506 91.8424 42.0546 89.3892 42.0546H87.7144C87.4616 42.0546 87.235 41.8925 87.1645 41.6608C86.7254 40.2116 86.1343 38.7997 85.4062 37.4663C85.2863 37.2468 85.3286 36.9678 85.5089 36.7866L86.7103 35.5861C87.5502 34.7452 88.0135 33.6284 88.0135 32.44C88.0135 31.2516 87.5502 30.1348 86.7103 29.2949L84.6831 27.2676C83.8432 26.4277 82.7263 25.9655 81.538 25.9655C80.3496 25.9655 79.2328 26.4277 78.3918 27.2676L77.1914 28.4691C77.0111 28.6494 76.7312 28.6927 76.5116 28.5718C75.1793 27.8447 73.7683 27.2525 72.3171 26.8134C72.0855 26.743 71.9234 26.5164 71.9234 26.2636V24.5888C71.9234 22.1356 69.9283 20.1395 67.4751 20.1395H64.6089C62.1557 20.1395 60.1607 22.1356 60.1607 24.5888V26.1548C60.1607 26.4126 59.9935 26.6402 59.7568 26.7077C58.2613 27.1327 56.8051 27.7188 55.4304 28.4489C55.2159 28.5627 54.941 28.5174 54.7627 28.3392L53.6922 27.2676C52.8513 26.4277 51.7344 25.9645 50.5461 25.9645C49.3577 25.9645 48.2409 26.4277 47.401 27.2676L45.3737 29.2949C44.5338 30.1348 44.0706 31.2516 44.0706 32.44C44.0706 33.6284 44.5338 34.7452 45.3737 35.5861L46.3355 36.5469C46.5188 36.7302 46.5611 37.0101 46.4382 37.2287C45.6497 38.6315 45.0132 40.122 44.5479 41.6568C44.4774 41.8914 44.2448 42.0546 43.9839 42.0546H42.6949C40.2416 42.0546 38.2456 44.0506 38.2456 46.5029V49.369C38.2456 51.8223 40.2416 53.8173 42.6949 53.8173H43.8832C44.1441 53.8173 44.3727 53.9814 44.4391 54.2171C44.8903 55.8033 45.5197 57.3411 46.3123 58.7892C46.4281 59.0017 46.3828 59.2777 46.2015 59.459L45.3737 60.2868C44.5338 61.1267 44.0706 62.2435 44.0706 63.4319C44.0706 64.6202 44.5338 65.7371 45.3737 66.578L47.4 68.6042C48.2409 69.4442 49.3577 69.9074 50.5461 69.9074C51.7344 69.9074 52.8513 69.4442 53.6912 68.6042L54.52 67.7764C54.7003 67.5952 54.9762 67.5498 55.1887 67.6667C56.6369 68.4582 58.1757 69.0887 59.7619 69.5388C59.9965 69.6053 60.1607 69.8339 60.1607 70.0947V71.2841C60.1607 73.7373 62.1557 75.7324 64.6089 75.7324H67.4751C69.9283 75.7324 71.9234 73.7363 71.9234 71.2841V69.994C71.9234 69.7332 72.0865 69.5016 72.3212 69.4301C73.857 68.9648 75.3464 68.3283 76.7493 67.5398C76.9678 67.4179 77.2478 67.4602 77.4311 67.6425L78.3918 68.6042C79.2328 69.4442 80.3496 69.9074 81.538 69.9074C82.7263 69.9074 83.8432 69.4442 84.6831 68.6042L86.7103 66.578C87.5502 65.7371 88.0135 64.6202 88.0135 63.4319C88.0135 62.2435 87.5502 61.1267 86.7103 60.2868L85.6398 59.2152C85.4605 59.037 85.4152 58.7621 85.529 58.5475C86.2602 57.1729 86.8453 55.7166 87.2703 54.2211ZM83.5501 53.1637C83.1996 54.3974 82.7162 55.5988 82.114 56.7348C81.1956 58.463 81.5138 60.5587 82.9046 61.9495L83.9751 63.021C84.2027 63.2476 84.2027 63.6162 83.9761 63.8428L81.9488 65.869C81.7223 66.0956 81.3537 66.0956 81.1271 65.869L80.1653 64.9083C78.7614 63.5034 76.5771 63.1992 74.854 64.1681C73.6958 64.8196 72.4662 65.3443 71.1983 65.729C69.3483 66.29 68.0562 68.0433 68.0562 69.994V71.2831C68.0562 71.6033 67.7953 71.8642 67.4751 71.8642H64.6089C64.2887 71.8642 64.0279 71.6033 64.0279 71.2831V70.0937C64.0279 68.1128 62.7076 66.3544 60.8183 65.8177C59.5091 65.446 58.2392 64.9264 57.0438 64.2728C56.3871 63.9133 55.6631 63.739 54.943 63.739C53.7879 63.739 52.6388 64.1872 51.7858 65.0412L50.957 65.869C50.816 66.01 50.6559 66.0392 50.5461 66.0392C50.4363 66.0392 50.2762 66.01 50.1352 65.869L48.1079 63.8418C47.8813 63.6152 47.8813 63.2466 48.1079 63.02L48.9358 62.1922C50.3235 60.8054 50.6397 58.6422 49.7052 56.9332C49.0516 55.7378 48.5309 54.4679 48.1593 53.1587C47.6225 51.2694 45.8642 49.9491 43.8832 49.9491H42.6939C42.3736 49.9491 42.1128 49.6883 42.1128 49.368V46.5019C42.1128 46.1816 42.3736 45.9208 42.6939 45.9208H43.9839C45.9337 45.9208 47.688 44.6287 48.2489 42.7787C48.6326 41.5118 49.1573 40.2811 49.8089 39.123C50.7777 37.3999 50.4736 35.2155 49.0697 33.8116L48.1079 32.8499C47.8813 32.6233 47.8813 32.2547 48.1079 32.0281L50.1352 30.0009C50.3618 29.7753 50.7304 29.7743 50.957 30.0009L52.0275 31.0724C53.4193 32.4632 55.514 32.7814 57.2432 31.8629C58.3781 31.2607 59.5796 30.7773 60.8133 30.4268C62.7056 29.8891 64.0269 28.1317 64.0269 26.1528V24.5868C64.0269 24.2665 64.2877 24.0057 64.6089 24.0057H67.4751C67.7953 24.0057 68.0562 24.2665 68.0562 24.5868V26.2616C68.0562 28.2354 69.3181 29.9445 71.1963 30.5135C72.3937 30.876 73.5579 31.3644 74.6576 31.9647C76.3737 32.9023 78.5399 32.588 79.9256 31.2023L81.1271 30.0009C81.3537 29.7743 81.7223 29.7743 81.9488 30.0009L83.9751 32.0281C84.2017 32.2547 84.2017 32.6233 83.9751 32.8499L82.7747 34.0503C81.3889 35.4371 81.0747 37.6033 82.0113 39.3184C82.6125 40.4191 83.1009 41.5843 83.4635 42.7807C84.0325 44.6589 85.7405 45.9198 87.7144 45.9198H89.3892C89.7094 45.9198 89.9702 46.1816 89.9702 46.5019V49.368C89.9702 49.6883 89.7094 49.9491 89.3892 49.9491H87.8231C85.8452 49.9501 84.0879 51.2714 83.5501 53.1637Z" fill="#00296B"/>
<path d="M66.0421 33.8329C58.2654 33.8329 51.939 40.1594 51.939 47.936C51.939 55.7127 58.2654 62.0402 66.0421 62.0402C73.8188 62.0402 80.1453 55.7127 80.1453 47.936C80.1453 40.1594 73.8188 33.8329 66.0421 33.8329ZM66.0421 58.173C60.3974 58.173 55.8062 53.5807 55.8062 47.936C55.8062 42.2914 60.3984 37.7001 66.0421 37.7001C71.6858 37.7001 76.2781 42.2914 76.2781 47.936C76.2781 53.5807 71.6868 58.173 66.0421 58.173Z" fill="#00296B"/>
</svg>
