<svg width="132" height="132" viewBox="0 0 132 132" fill="none" xmlns="http://www.w3.org/2000/svg">
<g clip-path="url(#clip0)">
<path d="M123.2 26.4C118.347 26.4 114.4 30.3469 114.4 35.1999C114.4 40.053 118.347 43.9999 123.2 43.9999C128.053 43.9999 132 40.0533 132 35.1999C132 30.3469 128.053 26.4 123.2 26.4ZM123.2 39.6C120.774 39.6 118.8 37.6267 118.8 35.1999C118.8 32.7734 120.774 30.7999 123.2 30.7999C125.627 30.7999 127.6 32.7732 127.6 35.1999C127.6 37.6267 125.627 39.6 123.2 39.6Z" fill="#00296B"/>
<path d="M8.79991 99C3.94685 99 0 102.947 0 107.8C0 112.653 3.94685 116.6 8.79991 116.6C13.6532 116.6 17.5998 112.653 17.5998 107.8C17.5998 102.947 13.6532 99 8.79991 99ZM8.79991 112.2C6.37338 112.2 4.39983 110.227 4.39983 107.8C4.39983 105.373 6.37312 103.4 8.79991 103.4C11.2264 103.4 13.2 105.373 13.2 107.8C13.2 110.227 11.2267 112.2 8.79991 112.2Z" fill="#00296B"/>
<path d="M118.935 29.1808L99.9553 20.0179C98.8596 19.4875 97.5463 19.9495 97.0183 21.0432C96.4903 22.1366 96.95 23.4522 98.0436 23.9802L117.023 33.1431C117.331 33.2926 117.657 33.363 117.978 33.363C118.796 33.363 119.582 32.9054 119.96 32.1178C120.488 31.0244 120.028 29.7088 118.935 29.1808Z" fill="#00296B"/>
<path d="M99.0001 114.4C94.1468 114.4 90.2002 118.347 90.2002 123.2C90.2002 128.053 94.1468 132 99.0001 132C103.853 132 107.8 128.053 107.8 123.2C107.8 118.347 103.853 114.4 99.0001 114.4ZM99.0001 127.6C96.5736 127.6 94.6 125.627 94.6 123.2C94.6 120.773 96.5736 118.8 99.0001 118.8C101.427 118.8 103.4 120.773 103.4 123.2C103.4 125.627 101.427 127.6 99.0001 127.6Z" fill="#00296B"/>
<path d="M94.734 117.181L75.7546 108.018C74.6589 107.488 73.3456 107.948 72.8176 109.043C72.2896 110.137 72.7493 111.452 73.8429 111.98L92.8223 121.143C93.1304 121.293 93.456 121.363 93.777 121.363C94.5953 121.363 95.3809 120.906 95.7593 120.118C96.2871 119.024 95.8274 117.709 94.734 117.181Z" fill="#00296B"/>
<path d="M66.0001 59.4C61.1468 59.4 57.2002 63.3469 57.2002 68.1999C57.2002 73.0533 61.147 76.9999 66.0001 76.9999C70.8534 76.9999 74.8 73.053 74.8 68.1999C74.8 63.3469 70.8534 59.4 66.0001 59.4ZM66.0001 72.6C63.5736 72.6 61.6 70.6267 61.6 68.1999C61.6 65.7734 63.5733 63.7999 66.0001 63.7999C68.4266 63.7999 70.4002 65.7731 70.4002 68.1999C70.4002 70.6267 68.4266 72.6 66.0001 72.6Z" fill="#00296B"/>
<path d="M62.1324 62.4273L47.5531 51.0642C46.5938 50.3227 45.2124 50.4877 44.4642 51.447C43.7184 52.4063 43.8878 53.7877 44.8471 54.5359L59.4264 65.899C59.8291 66.2114 60.3042 66.3633 60.7773 66.3633C61.4329 66.3633 62.0798 66.073 62.5152 65.5164C63.2611 64.5568 63.0917 63.1752 62.1324 62.4273Z" fill="#00296B"/>
<path d="M105.6 57.2002C92.2569 57.2002 81.3999 68.0572 81.3999 81.4003C81.3999 94.7434 92.2569 105.6 105.6 105.6C118.943 105.6 129.8 94.7434 129.8 81.4003C129.8 68.0572 118.943 57.2002 105.6 57.2002ZM105.6 101.2C94.6814 101.2 85.8 92.3186 85.8 81.4C85.8 70.4814 94.6814 61.6 105.6 61.6C116.519 61.6 125.4 70.4814 125.4 81.4C125.4 92.3186 116.519 101.2 105.6 101.2Z" fill="#00296B"/>
<path d="M105.6 66C100.747 66 96.8003 69.9469 96.8003 74.7999C96.8003 79.6532 100.747 83.5998 105.6 83.5998C110.454 83.5998 114.4 79.653 114.4 74.7999C114.4 69.9469 110.454 66 105.6 66ZM105.6 79.2C103.174 79.2 101.2 77.2267 101.2 74.7999C101.2 72.3734 103.173 70.3998 105.6 70.3998C108.027 70.3998 110 72.3731 110 74.7999C110 77.2267 108.027 79.2 105.6 79.2Z" fill="#00296B"/>
<path d="M111.982 87.9999H99.2178C95.4581 87.9999 92.3999 90.9766 92.3999 94.6329V100.432C92.3999 101.217 92.8178 101.943 93.4977 102.337C97.1849 104.471 101.369 105.6 105.6 105.6C109.831 105.6 114.015 104.471 117.702 102.337C118.382 101.946 118.8 101.217 118.8 100.434V94.6352C118.8 90.9766 115.742 87.9999 111.982 87.9999ZM114.4 99.1209C108.924 101.849 102.276 101.849 96.7997 99.1209V94.6352C96.7997 93.4031 97.8843 92.4 99.2175 92.4H111.982C113.315 92.4 114.4 93.4031 114.4 94.6352V99.1209H114.4Z" fill="#00296B"/>
<path d="M52.7997 83.6001C39.4566 83.6001 28.5996 94.4571 28.5996 107.8C28.5996 121.143 39.4566 132 52.7997 132C66.1428 132 76.9998 121.143 76.9998 107.8C76.9998 94.4568 66.1428 83.6001 52.7997 83.6001ZM52.7997 127.6C41.8811 127.6 32.9997 118.719 32.9997 107.8C32.9997 96.8813 41.8811 87.9999 52.7997 87.9999C63.7183 87.9999 72.5997 96.8813 72.5997 107.8C72.5997 118.719 63.7183 127.6 52.7997 127.6Z" fill="#00296B"/>
<path d="M52.7999 92.4C47.9466 92.4 44 96.3469 44 101.2C44 106.053 47.9469 110 52.7999 110C57.653 110 61.5998 106.053 61.5998 101.2C61.5998 96.3469 57.6532 92.4 52.7999 92.4ZM52.7999 105.6C50.3734 105.6 48.3998 103.627 48.3998 101.2C48.3998 98.7734 50.3731 96.7999 52.7999 96.7999C55.2264 96.7999 57.2 98.7731 57.2 101.2C57.2 103.627 55.2264 105.6 52.7999 105.6Z" fill="#00296B"/>
<path d="M59.1822 114.4H46.4179C42.6583 114.4 39.6001 117.377 39.6001 121.033V126.832C39.6001 127.618 40.018 128.344 40.6979 128.737C44.3851 130.871 48.5694 132 52.8001 132C57.0308 132 61.2151 130.871 64.9023 128.737C65.5822 128.346 66.0001 127.618 66.0001 126.835V121.035C66.0001 117.377 62.9422 114.4 59.1822 114.4ZM61.6 125.521C56.1241 128.249 49.4759 128.249 43.9999 125.521V121.035C43.9999 119.803 45.0845 118.8 46.4177 118.8H59.182C60.5151 118.8 61.5998 119.803 61.5998 121.035V125.521H61.6Z" fill="#00296B"/>
<path d="M24.2001 28.6C10.857 28.6 0 39.457 0 52.8001C0 66.1431 10.857 77.0001 24.2001 77.0001C37.5432 77.0001 48.4002 66.1431 48.4002 52.8001C48.3999 39.457 37.5429 28.6 24.2001 28.6ZM24.2001 72.6001C13.2815 72.6001 4.40009 63.7187 4.40009 52.8001C4.40009 41.8814 13.2815 33.0001 24.2001 33.0001C35.1187 33.0001 44.0001 41.8814 44.0001 52.8001C44.0001 63.7187 35.1187 72.6001 24.2001 72.6001Z" fill="#00296B"/>
<path d="M24.2003 37.4C19.347 37.4 15.4004 41.3469 15.4004 46.1999C15.4004 51.053 19.3472 54.9999 24.2003 54.9999C29.0536 54.9999 33.0002 51.053 33.0002 46.1999C33.0002 41.3469 29.0534 37.4 24.2003 37.4ZM24.2003 50.6C21.7738 50.6 19.8002 48.6267 19.8002 46.1999C19.8002 43.7731 21.7735 41.7999 24.2003 41.7999C26.6268 41.7999 28.6004 43.7731 28.6004 46.1999C28.6004 48.6267 26.6268 50.6 24.2003 50.6Z" fill="#00296B"/>
<path d="M30.5822 59.4H17.8179C14.0582 59.4 11 62.3767 11 66.033V71.8323C11 72.6176 11.4179 73.3436 12.0978 73.7375C15.785 75.8714 19.9693 77.0001 24.2 77.0001C28.4307 77.0001 32.615 75.8714 36.3022 73.7375C36.9821 73.3459 37.4 72.6176 37.4 71.8346V66.0353C37.4 62.3767 34.3418 59.4 30.5822 59.4ZM32.9999 70.521C27.5242 73.2489 20.8758 73.2489 15.3998 70.521V66.0353C15.3998 64.8033 16.4844 63.8001 17.8176 63.8001H30.5819C31.915 63.8001 32.9997 64.8033 32.9997 66.0353V70.521H32.9999Z" fill="#00296B"/>
<path d="M77.0004 0C63.6573 0 52.8003 10.857 52.8003 24.2001C52.8003 37.5432 63.6573 48.4002 77.0004 48.4002C90.3435 48.4002 101.2 37.5432 101.2 24.2001C101.2 10.857 90.3432 0 77.0004 0ZM77.0004 44.0001C66.0818 44.0001 57.2004 35.1187 57.2004 24.2001C57.2004 13.2815 66.0818 4.40009 77.0004 4.40009C87.919 4.40009 96.8004 13.2815 96.8004 24.2001C96.8004 35.1187 87.919 44.0001 77.0004 44.0001Z" fill="#00296B"/>
<path d="M77.0001 8.79993C72.1468 8.79993 68.2002 12.7468 68.2002 17.5998C68.2002 22.4529 72.147 26.3998 77.0001 26.3998C81.8532 26.3998 85.8 22.4532 85.8 17.6001C85.8 12.747 81.8532 8.79993 77.0001 8.79993ZM77.0001 21.9999C74.5736 21.9999 72.6 20.0266 72.6 17.5998C72.6 15.1733 74.5733 13.1998 77.0001 13.1998C79.4269 13.1998 81.4002 15.1731 81.4002 17.5998C81.3999 20.0266 79.4266 21.9999 77.0001 21.9999Z" fill="#00296B"/>
<path d="M83.3824 30.8H70.6181C66.8585 30.8 63.8003 33.7768 63.8003 37.433V43.2323C63.8003 44.0176 64.2182 44.7436 64.8981 45.1375C68.5853 47.2714 72.7696 48.4001 77.0003 48.4001C81.231 48.4001 85.4153 47.2714 89.1025 45.1375C89.7824 44.7459 90.2003 44.0176 90.2003 43.2346V37.4354C90.2003 33.7765 87.1421 30.8 83.3824 30.8ZM85.8002 41.921C80.3245 44.649 73.6761 44.649 68.2001 41.921V37.4354C68.2001 36.2033 69.2847 35.2001 70.6179 35.2001H83.3822C84.7153 35.2001 85.7999 36.2033 85.7999 37.4354V41.921H85.8002Z" fill="#00296B"/>
<path d="M56.674 22.7677C55.8843 21.848 54.496 21.738 53.572 22.5279L38.326 35.574C37.402 36.3637 37.2943 37.752 38.0839 38.676C38.5196 39.1841 39.1356 39.4461 39.7559 39.4461C40.2619 39.4461 40.7701 39.2723 41.1859 38.9158L56.4319 25.8697C57.3562 25.08 57.464 23.6917 56.674 22.7677Z" fill="#00296B"/>
<path d="M105.16 58.0824L91.96 40.4823C91.2317 39.5078 89.8524 39.3162 88.8799 40.0422C87.9074 40.7705 87.7118 42.1498 88.4398 43.12L101.64 60.7201C102.073 61.2965 102.733 61.6 103.402 61.6C103.86 61.6 104.324 61.4569 104.72 61.1599C105.692 60.4318 105.888 59.0525 105.16 58.0824Z" fill="#00296B"/>
<path d="M87.1046 88.6754C86.3763 87.703 84.997 87.5073 84.0245 88.2354L71.7354 97.4511C70.7629 98.1794 70.5672 99.5587 71.2953 100.529C71.7287 101.105 72.3887 101.409 73.0574 101.409C73.5171 101.409 73.9791 101.264 74.3754 100.969L86.6645 91.7529C87.637 91.0251 87.8329 89.6456 87.1046 88.6754Z" fill="#00296B"/>
<path d="M30.7998 105.6H15.3996C14.1853 105.6 13.1997 106.583 13.1997 107.8C13.1997 109.017 14.1853 110 15.3996 110H30.7995C32.0138 110 32.9994 109.017 32.9994 107.8C32.9994 106.583 32.0141 105.6 30.7998 105.6Z" fill="#00296B"/>
<path d="M24.2001 0C19.3468 0 15.3999 3.94685 15.3999 8.79991C15.3999 13.6532 19.3468 17.5998 24.1998 17.5998C29.0531 17.5998 32.9997 13.653 32.9997 8.79991C33 3.94685 29.0531 0 24.2001 0ZM24.2001 13.2C21.7735 13.2 19.8 11.2267 19.8 8.79991C19.8 6.37338 21.7733 4.39983 24.2001 4.39983C26.6266 4.39983 28.6002 6.37312 28.6002 8.79991C28.5999 11.2267 26.6266 13.2 24.2001 13.2Z" fill="#00296B"/>
<path d="M24.1999 13.2001C22.9856 13.2001 22 14.1834 22 15.4V30.7999C22 32.0165 22.9856 32.9998 24.1999 32.9998C25.4142 32.9998 26.3998 32.0165 26.3998 30.7999V15.4C26.3998 14.1834 25.4142 13.2001 24.1999 13.2001Z" fill="#00296B"/>
</g>
<defs>
<clipPath id="clip0">
<rect width="132" height="132" fill="white"/>
</clipPath>
</defs>
</svg>
