<svg width="132" height="132" viewBox="0 0 132 132" fill="none" xmlns="http://www.w3.org/2000/svg">
<path d="M13.5878 39.0109H49.3937C50.462 39.0109 51.3277 38.145 51.3277 37.0769C51.3277 36.0089 50.462 35.1429 49.3937 35.1429H13.5878C12.5195 35.1429 11.6538 36.0089 11.6538 37.0769C11.6538 38.145 12.5197 39.0109 13.5878 39.0109Z" fill="#20CE88"/>
<path d="M13.5878 48.8735H40.6307C41.699 48.8735 42.5646 48.0076 42.5646 46.9395C42.5646 45.8714 41.699 45.0055 40.6307 45.0055H13.5878C12.5195 45.0055 11.6538 45.8714 11.6538 46.9395C11.6538 48.0076 12.5197 48.8735 13.5878 48.8735Z" fill="#20CE88"/>
<path d="M13.5878 64.6321H39.9483C41.0167 64.6321 41.8823 63.7662 41.8823 62.6982C41.8823 61.6301 41.0167 60.7642 39.9483 60.7642H13.5878C12.5195 60.7642 11.6538 61.6301 11.6538 62.6982C11.6538 63.7662 12.5197 64.6321 13.5878 64.6321Z" fill="#20CE88"/>
<path d="M13.5878 74.4947H39.9483C41.0167 74.4947 41.8823 73.6288 41.8823 72.5607C41.8823 71.4926 41.0167 70.6267 39.9483 70.6267H13.5878C12.5195 70.6267 11.6538 71.4926 11.6538 72.5607C11.6538 73.6288 12.5197 74.4947 13.5878 74.4947Z" fill="#20CE88"/>
<path d="M13.5878 84.3575H42.8011C43.8694 84.3575 44.7351 83.4916 44.7351 82.4235C44.7351 81.3554 43.8694 80.4895 42.8011 80.4895H13.5878C12.5195 80.4895 11.6538 81.3554 11.6538 82.4235C11.6538 83.4916 12.5197 84.3575 13.5878 84.3575Z" fill="#20CE88"/>
<path d="M13.5878 94.2203H46.7346C47.8029 94.2203 48.6686 93.3544 48.6686 92.2863C48.6686 91.2182 47.8029 90.3523 46.7346 90.3523H13.5878C12.5195 90.3523 11.6538 91.2182 11.6538 92.2863C11.6538 93.3544 12.5197 94.2203 13.5878 94.2203Z" fill="#20CE88"/>
<path d="M13.5878 104.083H71.8525C72.9208 104.083 73.7865 103.217 73.7865 102.149C73.7865 101.081 72.9208 100.215 71.8525 100.215H13.5878C12.5195 100.215 11.6538 101.081 11.6538 102.149C11.6538 103.217 12.5197 104.083 13.5878 104.083Z" fill="#20CE88"/>
<path d="M13.5878 113.946H71.8525C72.9208 113.946 73.7865 113.08 73.7865 112.012C73.7865 110.944 72.9208 110.078 71.8525 110.078H13.5878C12.5195 110.078 11.6538 110.944 11.6538 112.012C11.6538 113.08 12.5197 113.946 13.5878 113.946Z" fill="#20CE88"/>
<path d="M131.91 102.864C131.581 100.574 130.38 98.5495 128.528 97.1627L98.0598 74.3488C99.288 71.247 99.9633 67.8681 99.9633 64.3346C99.9633 57.1941 97.2049 50.6868 92.6995 45.8186V24.7262C92.6995 21.1581 89.7965 18.2551 86.2284 18.2551H67.7701V15.9209C67.7701 14.0075 66.2134 12.4505 64.2998 12.4505H57.8186C57.7188 6.21175 52.6123 1.16687 46.3498 1.16687C40.0872 1.16687 34.9807 6.21149 34.8809 12.4508H28.3995C26.4859 12.4508 24.9291 14.0075 24.9291 15.9212V18.2554H6.47113C2.90305 18.2554 0 21.1581 0 24.7262V105.195C0 106.263 0.865654 107.129 1.93399 107.129C3.00233 107.129 3.86798 106.263 3.86798 105.195V24.7262C3.86798 23.2909 5.0356 22.1231 6.47113 22.1231H24.9294V24.4573C24.9294 26.3706 26.4861 27.9276 28.3997 27.9276H64.2998C66.2134 27.9276 67.7701 26.3709 67.7701 24.4573V22.1231H86.2284C87.6637 22.1231 88.8315 23.2907 88.8315 24.7262V42.3591C84.306 39.0236 78.7186 37.0491 72.6778 37.0491C57.6324 37.0491 45.3923 49.2892 45.3923 64.3346C45.3923 70.1634 47.2046 75.7245 50.6337 80.4174C51.2639 81.2797 52.4741 81.4682 53.3361 80.838C54.1987 80.2078 54.3867 78.9979 53.7567 78.1356C50.815 74.1098 49.26 69.3375 49.26 64.3349C49.26 51.4225 59.7652 40.9173 72.6776 40.9173C85.5899 40.9173 96.0951 51.4225 96.0951 64.3349C96.0951 77.2472 85.5902 87.7524 72.6776 87.7524C68.0803 87.7524 63.6309 86.4216 59.8103 83.904C58.9181 83.3163 57.7188 83.5629 57.1311 84.4548C56.5434 85.3468 56.79 86.5461 57.6819 87.134C62.1363 90.0691 67.3217 91.6206 72.6776 91.6206C77.8784 91.6206 82.7436 90.1572 86.8844 87.6217L88.8313 89.0794V124.362C88.8313 125.797 87.6637 126.965 86.2281 126.965H6.47113C5.03585 126.965 3.86798 125.797 3.86798 124.362V114.221C3.86798 113.153 3.00233 112.287 1.93399 112.287C0.865654 112.287 0 113.153 0 114.221V124.362C0 127.93 2.90305 130.833 6.47113 130.833H86.2284C89.7965 130.833 92.6995 127.93 92.6995 124.362V91.9752L118.146 111.029C119.66 112.163 121.461 112.759 123.319 112.759C123.734 112.759 124.152 112.729 124.569 112.669C126.859 112.34 128.884 111.139 130.271 109.287C131.657 107.435 132.239 105.154 131.91 102.864ZM63.9021 24.0596H28.7974V16.3185H35.9763C37.5045 16.3185 38.7476 15.0754 38.7476 13.5472V12.6367C38.7476 8.44486 42.1582 5.03459 46.3498 5.03459C50.5414 5.03459 53.9519 8.44486 53.9519 12.6367V13.5472C53.9519 15.0754 55.1948 16.3185 56.7229 16.3185H63.9019V24.0596H63.9021ZM90.1755 85.2532C92.6392 83.1892 94.7351 80.7 96.347 77.8981L100.858 81.2758L95.1121 88.9494L90.1755 85.2532ZM127.174 106.969C126.407 107.994 125.286 108.658 124.019 108.84C122.751 109.023 121.489 108.7 120.464 107.932L98.2085 91.2679L103.954 83.5941L126.21 100.259C128.326 101.843 128.758 104.853 127.174 106.969Z" fill="#20CE88"/>
<path d="M72.678 82.4404C82.6615 82.4404 90.7835 74.3181 90.7835 64.3349C90.7835 54.3516 82.6615 46.2294 72.678 46.2294C62.6945 46.2294 54.5723 54.3516 54.5723 64.3349C54.5723 74.3184 62.6945 82.4404 72.678 82.4404ZM72.678 50.0973C80.5285 50.0973 86.9155 56.4844 86.9155 64.3349C86.9155 72.1856 80.5285 78.5724 72.678 78.5724C64.8273 78.5724 58.4402 72.1853 58.4402 64.3349C58.4402 56.4844 64.8271 50.0973 72.678 50.0973Z" fill="#20CE88"/>
</svg>
