<svg width="100" height="100" viewBox="0 0 100 100" fill="none" xmlns="http://www.w3.org/2000/svg">
<path d="M10.2938 29.5538H37.4194C38.2288 29.5538 38.8846 28.8978 38.8846 28.0887C38.8846 27.2795 38.2288 26.6235 37.4194 26.6235H10.2938C9.48441 26.6235 8.82861 27.2795 8.82861 28.0887C8.82861 28.8978 9.48461 29.5538 10.2938 29.5538Z" fill="#00296B"/>
<path d="M10.2938 37.0255H30.7808C31.5901 37.0255 32.2459 36.3695 32.2459 35.5604C32.2459 34.7512 31.5901 34.0952 30.7808 34.0952H10.2938C9.48441 34.0952 8.82861 34.7512 8.82861 35.5604C8.82861 36.3695 9.48461 37.0255 10.2938 37.0255Z" fill="#00296B"/>
<path d="M10.2938 48.9637H30.2639C31.0732 48.9637 31.729 48.3077 31.729 47.4986C31.729 46.6894 31.0732 46.0334 30.2639 46.0334H10.2938C9.48441 46.0334 8.82861 46.6894 8.82861 47.4986C8.82861 48.3077 9.48461 48.9637 10.2938 48.9637Z" fill="#00296B"/>
<path d="M10.2938 56.4354H30.2639C31.0732 56.4354 31.729 55.7794 31.729 54.9703C31.729 54.1611 31.0732 53.5051 30.2639 53.5051H10.2938C9.48441 53.5051 8.82861 54.1611 8.82861 54.9703C8.82861 55.7794 9.48461 56.4354 10.2938 56.4354Z" fill="#00296B"/>
<path d="M10.2938 63.9073H32.4251C33.2344 63.9073 33.8902 63.2513 33.8902 62.4422C33.8902 61.633 33.2344 60.9771 32.4251 60.9771H10.2938C9.48441 60.9771 8.82861 61.633 8.82861 62.4422C8.82861 63.2513 9.48461 63.9073 10.2938 63.9073Z" fill="#00296B"/>
<path d="M10.2938 71.379H35.405C36.2143 71.379 36.8701 70.723 36.8701 69.9139C36.8701 69.1047 36.2143 68.4487 35.405 68.4487H10.2938C9.48441 68.4487 8.82861 69.1047 8.82861 69.9139C8.82861 70.723 9.48461 71.379 10.2938 71.379Z" fill="#00296B"/>
<path d="M10.2938 78.8507H54.4337C55.243 78.8507 55.8988 78.1947 55.8988 77.3856C55.8988 76.5764 55.243 75.9204 54.4337 75.9204H10.2938C9.48441 75.9204 8.82861 76.5764 8.82861 77.3856C8.82861 78.1947 9.48461 78.8507 10.2938 78.8507Z" fill="#00296B"/>
<path d="M10.2938 86.3224H54.4337C55.243 86.3224 55.8988 85.6664 55.8988 84.8572C55.8988 84.0481 55.243 83.3921 54.4337 83.3921H10.2938C9.48441 83.3921 8.82861 84.0481 8.82861 84.8572C8.82861 85.6664 9.48461 86.3224 10.2938 86.3224Z" fill="#00296B"/>
<path d="M99.932 77.9274C99.6829 76.1926 98.7728 74.6587 97.37 73.6081L74.2877 56.3249C75.2182 53.975 75.7298 51.4153 75.7298 48.7384C75.7298 43.3289 73.6401 38.3992 70.2269 34.7111V18.732C70.2269 16.0289 68.0276 13.8297 65.3245 13.8297H51.341V12.0613C51.341 10.6118 50.1617 9.43227 48.7119 9.43227H43.8019C43.7263 4.70591 39.8578 0.884033 35.1134 0.884033C30.3691 0.884033 26.5006 4.70572 26.4249 9.43247H21.5148C20.0651 9.43247 18.8857 10.6118 18.8857 12.0615V13.8299H4.90237C2.19928 13.8299 0 16.0289 0 18.732V79.6934C0 80.5025 0.655798 81.1585 1.46514 81.1585C2.27449 81.1585 2.93029 80.5025 2.93029 79.6934V18.732C2.93029 17.6447 3.81484 16.7599 4.90237 16.7599H18.8859V18.5283C18.8859 19.9778 20.0652 21.1573 21.515 21.1573H48.7119C50.1617 21.1573 51.341 19.978 51.341 18.5283V16.7599H65.3245C66.4119 16.7599 67.2966 17.6445 67.2966 18.732V32.0902C63.8682 29.5634 59.6353 28.0675 55.0589 28.0675C43.6609 28.0675 34.3881 37.3403 34.3881 48.7384C34.3881 53.1541 35.761 57.3671 38.3588 60.9223C38.8363 61.5756 39.7531 61.7184 40.4061 61.2409C41.0596 60.7635 41.202 59.8469 40.7248 59.1936C38.4962 56.1438 37.3182 52.5284 37.3182 48.7386C37.3182 38.9565 45.2767 30.998 55.0587 30.998C64.8408 30.998 72.7993 38.9565 72.7993 48.7386C72.7993 58.5207 64.841 66.4791 55.0587 66.4791C51.576 66.4791 48.2052 65.4709 45.3109 63.5637C44.6349 63.1185 43.7263 63.3052 43.2811 63.981C42.8359 64.6567 43.0227 65.5653 43.6984 66.0107C47.0729 68.2342 51.0013 69.4096 55.0587 69.4096C58.9988 69.4096 62.6845 68.301 65.8215 66.3801L67.2964 67.4844V94.2137C67.2964 95.3011 66.4119 96.1856 65.3243 96.1856H4.90237C3.81504 96.1856 2.93029 95.3011 2.93029 94.2137V86.5311C2.93029 85.7219 2.27449 85.0659 1.46514 85.0659C0.655798 85.0659 0 85.7219 0 86.5311V94.2137C0 96.9168 2.19928 99.1159 4.90237 99.1159H65.3245C68.0276 99.1159 70.2269 96.9168 70.2269 94.2137V69.6782L89.5047 84.1128C90.6518 84.9718 92.0157 85.4232 93.4238 85.4232C93.7378 85.4232 94.0542 85.4008 94.3707 85.3553C96.1056 85.106 97.6394 84.196 98.69 82.793C99.74 81.3902 100.181 79.6621 99.932 77.9274ZM48.4107 18.227H21.8162V12.3626H27.2548C28.4125 12.3626 29.3543 11.4208 29.3543 10.2631V9.57332C29.3543 6.39766 31.938 3.81413 35.1134 3.81413C38.2889 3.81413 40.8726 6.39766 40.8726 9.57332V10.2631C40.8726 11.4208 41.8142 12.3626 42.9719 12.3626H48.4105V18.227H48.4107ZM68.3148 64.5858C70.1812 63.0222 71.769 61.1364 72.9902 59.0137L76.4075 61.5727L72.0546 67.386L68.3148 64.5858ZM96.344 81.0368C95.7626 81.8133 94.9138 82.3167 93.9538 82.4547C92.9931 82.593 92.0372 82.3484 91.2609 81.767L74.4004 69.1424L78.7533 63.3289L95.6137 75.9535C97.2164 77.154 97.544 79.4341 96.344 81.0368Z" fill="#00296B"/>
<path d="M55.059 62.4548C62.6223 62.4548 68.7753 56.3016 68.7753 48.7385C68.7753 41.1754 62.6223 35.0222 55.059 35.0222C47.4957 35.0222 41.3425 41.1754 41.3425 48.7385C41.3425 56.3018 47.4957 62.4548 55.059 62.4548ZM55.059 37.9525C61.0063 37.9525 65.845 42.7912 65.845 48.7385C65.845 54.686 61.0063 59.5245 55.059 59.5245C49.1115 59.5245 44.2728 54.6858 44.2728 48.7385C44.2728 42.7912 49.1113 37.9525 55.059 37.9525Z" fill="#00296B"/>
</svg>
