<svg width="132" height="132" viewBox="0 0 132 132" fill="none" xmlns="http://www.w3.org/2000/svg">
<g clip-path="url(#clip0)">
<path d="M23.2162 102.081C21.3682 102.081 19.5917 102.542 18.0157 103.408C9.71329 92.7652 5.15625 79.5442 5.15625 66C5.15625 32.4501 32.4501 5.15625 66 5.15625C70.0787 5.15625 74.1553 5.5621 78.1172 6.36273C79.511 6.64471 80.8726 5.74237 81.1545 4.34656C81.4365 2.95074 80.5342 1.59119 79.1384 1.3082C74.8412 0.440094 70.4211 0 66 0C48.3711 0 31.7965 6.86526 19.3309 19.3309C6.86526 31.7965 0 48.3711 0 66C0 80.8293 5.0354 95.301 14.2029 106.903C13.0226 108.666 12.3881 110.739 12.3881 112.909C12.3881 115.801 13.515 118.52 15.5604 120.565C17.6048 122.61 20.3239 123.737 23.2162 123.737C26.1086 123.737 28.8277 122.61 30.873 120.565C32.9184 118.52 34.0443 115.8 34.0443 112.908C34.0443 110.016 32.9184 107.296 30.873 105.252C28.8277 103.207 26.1086 102.081 23.2162 102.081ZM27.2264 116.919C26.1559 117.991 24.7309 118.581 23.2162 118.581C21.7016 118.581 20.2776 117.991 19.206 116.919C18.1345 115.847 17.5443 114.423 17.5443 112.909C17.5443 111.393 18.1345 109.969 19.206 108.898C20.2766 107.826 21.7016 107.237 23.2162 107.237C24.7309 107.237 26.1549 107.827 27.2264 108.898C28.2979 109.969 28.8881 111.393 28.8881 112.909C28.8881 114.423 28.2979 115.847 27.2264 116.919Z" fill="#00296B"/>
<path d="M117.795 25.0944C120.598 20.8898 120.148 15.1414 116.441 11.4344C114.395 9.38998 111.676 8.26306 108.784 8.26306C105.892 8.26306 103.173 9.38998 101.127 11.4344C99.0818 13.4797 97.9559 16.1989 97.9559 19.0912C97.9559 21.9835 99.0818 24.7026 101.127 26.748C103.173 28.7934 105.892 29.9193 108.784 29.9193C110.632 29.9193 112.409 29.4581 113.985 28.592C122.287 39.2358 126.844 52.4557 126.844 66C126.844 99.5498 99.5501 126.844 66.0002 126.844C61.9619 126.844 57.9235 126.446 53.9989 125.66C52.6031 125.381 51.2445 126.287 50.9645 127.683C50.6856 129.079 51.5909 130.437 52.9868 130.717C57.2437 131.568 61.6225 132 66.0002 132C83.6292 132 100.204 125.135 112.669 112.669C125.135 100.203 132 83.6289 132 66C132 51.1697 126.964 36.697 117.795 25.0944ZM104.774 23.1024C103.702 22.0309 103.112 20.6068 103.112 19.0912C103.112 17.5765 103.702 16.1525 104.774 15.081C105.844 14.0095 107.269 13.4193 108.784 13.4193C110.299 13.4193 111.724 14.0095 112.795 15.081C115.006 17.2925 115.006 20.8908 112.795 23.1024C111.724 24.1729 110.299 24.7631 108.784 24.7631C107.268 24.7631 105.844 24.1729 104.774 23.1024Z" fill="#00296B"/>
<path d="M55.3613 110.344C55.3613 111.768 56.5165 112.922 57.9395 112.922H74.0598C75.4838 112.922 76.6379 111.768 76.6379 110.344V105.346C80.0277 104.433 83.2685 103.09 86.3139 101.335L89.8427 104.864C90.3261 105.348 90.9818 105.62 91.6666 105.62C92.3494 105.62 93.006 105.348 93.4894 104.863L104.883 93.4611C105.89 92.454 105.89 90.8215 104.883 89.8154L101.359 86.2906C103.113 83.2452 104.456 80.0045 105.369 76.6146H110.348C111.772 76.6146 112.926 75.4605 112.926 74.0365V57.9162C112.926 56.4922 111.772 55.338 110.348 55.338H105.368C104.455 51.9492 103.113 48.7084 101.359 45.663L104.864 42.1574C105.348 41.674 105.62 41.0174 105.62 40.3336C105.619 39.6497 105.347 38.9931 104.863 38.5097L93.4602 27.1156C92.4541 26.1096 90.8216 26.1096 89.8145 27.1166L86.3139 30.6183C83.2685 28.8639 80.0277 27.5205 76.6379 26.6081V21.6562C76.6379 20.2322 75.4838 19.0781 74.0598 19.0781H57.9395C56.5165 19.0781 55.3613 20.2322 55.3613 21.6562V26.6091C51.9725 27.5205 48.7317 28.8639 45.6863 30.6183L42.1847 27.1166C41.1786 26.1106 39.5461 26.1096 38.5391 27.1156L27.1369 38.5107C26.6525 38.9941 26.3806 39.6497 26.3806 40.3336C26.3806 41.0174 26.6525 41.674 27.1359 42.1574L30.6415 45.663C28.8872 48.7084 27.5438 51.9482 26.6314 55.338H21.6614C20.2374 55.338 19.0833 56.4922 19.0833 57.9152L19.0742 74.0355C19.0732 74.7193 19.3451 75.3759 19.8285 75.8593C20.3119 76.3427 20.9675 76.6146 21.6523 76.6146H26.6314C27.5438 80.0045 28.8872 83.2452 30.6415 86.2906L27.1168 89.8154C26.1107 90.8215 26.1097 92.454 27.1168 93.4611L38.5109 104.863C38.9943 105.347 39.6499 105.62 40.3337 105.62H40.3347C41.0185 105.62 41.6741 105.348 42.1575 104.864L45.6853 101.335C48.7317 103.09 51.9725 104.433 55.3613 105.346V110.344ZM46.6964 95.9133C45.6762 95.2537 44.3338 95.3967 43.4738 96.2557L40.3347 99.3948L32.5852 91.6393L35.7213 88.5022C36.5803 87.6432 36.7233 86.3007 36.0637 85.2805C33.7262 81.6631 32.0827 77.6982 31.1803 73.4947C30.9245 72.3073 29.8752 71.4584 28.6596 71.4584H24.2315L24.2375 60.4943H28.6596C29.8752 60.4943 30.9245 59.6463 31.1803 58.458C32.0827 54.2554 33.7262 50.2906 36.0637 46.6731C36.7233 45.653 36.5803 44.3105 35.7213 43.4515L32.6053 40.3346L40.3609 32.5851L43.4738 35.699C44.3338 36.558 45.6752 36.7 46.6964 36.0414C50.3128 33.7039 54.2777 32.0604 58.4813 31.1581C59.6686 30.9023 60.5176 29.8519 60.5176 28.6373V24.2344H71.4817V28.6363C71.4817 29.8519 72.3296 30.9023 73.518 31.157C77.7205 32.0604 81.6864 33.7029 85.3028 36.0404C86.323 36.7 87.6654 36.558 88.5245 35.698L91.6384 32.5851L99.3939 40.3346L96.278 43.4505C95.4179 44.3105 95.2759 45.653 95.9356 46.6731C98.273 50.2906 99.9156 54.2554 100.819 58.458C101.074 59.6463 102.124 60.4943 103.34 60.4943H107.77V71.4584H103.34C102.124 71.4584 101.075 72.3073 100.819 73.4947C99.9166 77.6972 98.273 81.6631 95.9356 85.2795C95.2759 86.3007 95.4189 87.6432 96.278 88.5022L99.414 91.6382L91.6646 99.3938L88.5255 96.2557C87.6654 95.3957 86.323 95.2537 85.3028 95.9133C81.6854 98.2507 77.7205 99.8933 73.518 100.797C72.3296 101.052 71.4817 102.102 71.4817 103.317V107.766H60.5176V103.317C60.5176 102.103 59.6686 101.052 58.4813 100.797C54.2787 99.8943 50.3138 98.2507 46.6964 95.9133Z" fill="#00296B"/>
<path d="M87.3028 66C87.3028 54.2534 77.7466 44.6973 66 44.6973C54.2534 44.6973 44.6973 54.2534 44.6973 66C44.6973 77.7466 54.2534 87.3028 66 87.3028C77.7466 87.3028 87.3028 77.7466 87.3028 66ZM49.8535 66C49.8535 57.0964 57.0964 49.8535 66 49.8535C74.9036 49.8535 82.1465 57.0974 82.1465 66C82.1465 74.9026 74.9036 82.1465 66 82.1465C57.0964 82.1465 49.8535 74.9036 49.8535 66Z" fill="#00296B"/>
<path d="M89.7388 9.75058C90.4175 9.75058 91.0822 9.47464 91.5616 8.99527C92.041 8.51288 92.3169 7.84821 92.3169 7.16943C92.3169 6.49469 92.042 5.82901 91.5616 5.34662C91.0822 4.86725 90.4175 4.59131 89.7388 4.59131C89.058 4.59131 88.3963 4.86725 87.917 5.34662C87.4366 5.82901 87.1606 6.49167 87.1606 7.16943C87.1606 7.85022 87.4366 8.51288 87.917 8.99527C88.3963 9.47464 89.058 9.75058 89.7388 9.75058Z" fill="#00296B"/>
<path d="M42.374 122.296C41.6963 122.296 41.0306 122.572 40.5512 123.051C40.0718 123.53 39.7959 124.196 39.7959 124.874C39.7959 125.555 40.0718 126.217 40.5512 126.697C41.0306 127.176 41.6963 127.452 42.374 127.452C43.0518 127.452 43.7175 127.176 44.1968 126.697C44.6762 126.217 44.9521 125.552 44.9521 124.874C44.9521 124.196 44.6762 123.53 44.1968 123.051C43.7175 122.572 43.0518 122.296 42.374 122.296Z" fill="#00296B"/>
</g>
<defs>
<clipPath id="clip0">
<rect width="132" height="132" fill="white"/>
</clipPath>
</defs>
</svg>
