<svg width="120" height="144" viewBox="0 0 120 144" fill="none" xmlns="http://www.w3.org/2000/svg">
<path d="M45.6001 88.8C45.6001 108.314 58.2409 124.8 73.2001 124.8C88.1593 124.8 100.8 108.314 100.8 88.8C100.8 69.2857 88.1593 52.8 73.2001 52.8C58.2409 52.8 45.6001 69.2857 45.6001 88.8ZM96.0001 88.8C96.0001 105.713 85.5577 120 73.2001 120C60.8425 120 50.4001 105.713 50.4001 88.8C50.4001 71.8872 60.8425 57.6 73.2001 57.6C85.5577 57.6 96.0001 71.8872 96.0001 88.8Z" fill="#121330"/>
<path d="M55.2001 88.7999C55.2001 104.357 64.6849 115.2 73.2001 115.2C81.7153 115.2 91.2001 104.357 91.2001 88.7999C91.2001 73.2431 81.7153 62.3999 73.2001 62.3999C64.6849 62.3999 55.2001 73.2431 55.2001 88.7999ZM86.4001 88.7999C86.4001 100.963 79.3033 110.4 73.2001 110.4C67.0969 110.4 60.0001 100.963 60.0001 88.7999C60.0001 76.6367 67.0969 67.1999 73.2001 67.1999C79.3033 67.1999 86.4001 76.6367 86.4001 88.7999Z" fill="#121330"/>
<path d="M46.8001 144H73.2001C99.0049 144 120 119.237 120 88.7999C120 64.1183 106.193 43.1711 87.2113 36.1295C60.4129 23.9447 57.3817 8.07347 57.0913 3.48948C57.009 2.08272 56.1018 0.858082 54.7801 0.369476C53.4529 -0.124482 51.9596 0.199867 50.9569 1.19988L45.0001 7.15188L37.0537 0.796676C35.8818 -0.142442 34.2501 -0.255496 32.96 0.51304C31.6698 1.28158 30.9923 2.77023 31.2601 4.24788C32.2705 9.74387 36.1633 25.2791 48.3001 33.5999H46.8001C20.9953 33.5999 6.10352e-05 58.3631 6.10352e-05 88.7999C6.10352e-05 119.237 20.9953 144 46.8001 144ZM115.2 88.7999C115.2 116.592 96.3577 139.2 73.2001 139.2C50.0425 139.2 31.2001 116.592 31.2001 88.7999C31.2001 61.0079 50.0425 38.3999 73.2001 38.3999C96.3577 38.3999 115.2 61.0079 115.2 88.7999ZM36.7009 6.65988L42.8425 11.5703C44.276 12.7193 46.3448 12.6045 47.6425 11.3039L52.6177 6.32868C53.6425 12.1511 57.6385 23.3687 72.7777 33.5999H60.2977C44.7073 30.3695 38.7673 14.8343 36.7009 6.65988ZM46.8001 38.3999H54.1489C37.8145 47.0231 26.4001 66.3623 26.4001 88.7999C26.4001 111.237 37.8145 130.577 54.1489 139.2H46.8001C23.6425 139.2 4.80006 116.592 4.80006 88.7999C4.80006 61.0079 23.6425 38.3999 46.8001 38.3999Z" fill="#121330"/>
<path d="M17.7001 65.04C17.1237 64.7698 16.4636 64.7396 15.865 64.9561C15.2663 65.1725 14.7782 65.618 14.5081 66.1944C8.43149 79.8346 7.98727 95.3227 13.2721 109.289C13.5533 110.111 14.2565 110.716 15.1109 110.873C15.9652 111.029 16.8374 110.711 17.3913 110.042C17.9452 109.373 18.0945 108.457 17.7817 107.647C12.9341 94.8797 13.3188 80.7152 18.8521 68.2296C19.4135 67.0306 18.8981 65.6035 17.7001 65.04Z" fill="#121330"/>
<path d="M22.2817 60.5566C23.0062 60.5577 23.6924 60.2313 24.1489 59.6686C25.1251 58.4685 26.1752 57.3303 27.2929 56.2606C27.9361 55.6726 28.2099 54.782 28.0083 53.9342C27.8067 53.0864 27.1613 52.4144 26.3223 52.1788C25.4832 51.9432 24.5824 52.1809 23.9689 52.7998C22.7078 54.0049 21.5231 55.2873 20.4217 56.6398C19.839 57.3581 19.7209 58.3472 20.118 59.1824C20.5152 60.0176 21.3569 60.5504 22.2817 60.5518V60.5566Z" fill="#121330"/>
</svg>
