<svg width="349" height="349" viewBox="0 0 349 349" fill="none" xmlns="http://www.w3.org/2000/svg">
<path d="M289.723 32.2239L289.867 32.4746H290.157H322.914C325.159 32.4746 327.234 33.6699 328.361 35.6126L328.793 35.3618L328.361 35.6126L346.728 67.2814L347.16 67.0305L346.728 67.2814C347.853 69.221 347.862 71.6126 346.751 73.5611L347.185 73.8088L346.751 73.5611L328.384 105.76C327.263 107.724 325.175 108.937 322.914 108.937H289.833H289.565L289.417 109.16L275.479 130.149L275.282 130.445L275.497 130.728C278.038 134.07 279.55 138.233 279.55 142.744C279.55 145.763 278.879 148.678 277.613 151.322L277.46 151.641L277.711 151.891L291.294 165.475L291.545 165.725L291.864 165.572C294.508 164.306 297.422 163.636 300.442 163.636C311.41 163.636 320.334 172.56 320.334 183.528C320.334 194.496 311.41 203.42 300.442 203.42C289.474 203.42 280.55 194.496 280.55 183.528C280.55 180.508 281.22 177.594 282.486 174.95L282.639 174.631L282.389 174.381L268.805 160.797L268.555 160.547L268.235 160.7C265.592 161.966 262.677 162.636 259.658 162.636C248.69 162.636 239.766 153.712 239.766 142.744C239.766 131.776 248.69 122.852 259.658 122.852C261.3 122.852 262.894 123.056 264.423 123.433L264.764 123.517L264.959 123.224L278.638 102.624L278.808 102.369L278.658 102.102L264.275 76.5645L264.132 76.3098H263.839H231.116C228.878 76.3098 226.808 75.1222 225.679 73.1902L225.248 73.4424L225.679 73.1901L208.303 43.4613L208.23 43.3376L208.103 43.271L192.17 34.9001L191.857 34.7356L191.598 34.976C188.047 38.2677 183.3 40.284 178.09 40.284C167.122 40.284 158.198 31.36 158.198 20.392C158.198 9.42399 167.122 0.5 178.09 0.5C189.058 0.5 197.982 9.42399 197.982 20.392C197.982 21.3585 197.909 22.3095 197.775 23.2416L197.724 23.5912L198.037 23.7554L209.903 29.9893L210.328 30.2127L210.568 29.7966L225.662 3.64931L225.662 3.64925C226.786 1.7003 228.866 0.5 231.116 0.5H267.842C270.095 0.5 272.177 1.70466 273.301 3.65875L289.723 32.2239ZM220.184 38.331L220.038 38.5825L220.185 38.8333L234.584 63.4675L234.729 63.7152H235.016H263.951H264.237L264.382 63.4684L278.775 38.9572L278.923 38.7067L278.778 38.4548L264.342 13.3455L264.198 13.0947H263.909H235.04H234.751L234.607 13.3447L220.184 38.331ZM318.965 96.3424H319.256L319.399 96.0901L333.873 70.7163L334.015 70.4667L333.871 70.218L319.43 45.2915L319.286 45.0421H318.998H290.078H289.792L289.647 45.2891L275.237 69.8554L275.091 70.1033L275.232 70.3537L289.725 96.0877L289.868 96.3424H290.161H318.965ZM170.792 20.392C170.792 24.4162 174.066 27.6893 178.09 27.6893C182.114 27.6893 185.387 24.4162 185.387 20.392C185.387 16.3678 182.114 13.0947 178.09 13.0947C174.066 13.0947 170.792 16.3678 170.792 20.392ZM259.658 135.447C255.634 135.447 252.36 138.72 252.36 142.744C252.36 146.768 255.634 150.041 259.658 150.041C263.687 150.041 266.955 146.773 266.955 142.744C266.955 138.72 263.682 135.447 259.658 135.447ZM300.442 190.825C304.466 190.825 307.739 187.552 307.739 183.528C307.739 179.504 304.466 176.231 300.442 176.231C296.413 176.231 293.144 179.499 293.144 183.528C293.144 187.552 296.418 190.825 300.442 190.825Z" fill="#121330" stroke="black"/>
<path d="M126.007 143.242C123.787 146.456 120.099 152.029 116.969 157.876C115.403 160.8 113.982 163.785 112.953 166.571C111.921 169.365 111.297 171.925 111.297 174.011C111.297 184.979 120.221 193.903 131.189 193.903C142.157 193.903 151.081 184.979 151.081 174.011C151.081 171.925 150.457 169.365 149.425 166.571C148.396 163.785 146.975 160.8 145.409 157.876C142.278 152.029 138.59 146.456 136.37 143.242L126.007 143.242ZM126.007 143.242C127.184 141.54 129.12 140.524 131.189 140.524M126.007 143.242L131.189 140.524M131.189 140.524C133.257 140.524 135.194 141.54 136.37 143.242L131.189 140.524ZM123.892 174.006L123.892 174.006V174.019C123.892 178.035 127.165 181.308 131.189 181.308C135.211 181.308 138.483 178.039 138.486 174.017L138.486 174.01L138.486 174.003C138.469 173.4 138.259 172.577 137.922 171.617C137.58 170.644 137.092 169.486 136.486 168.195C135.275 165.611 133.582 162.468 131.62 159.164L131.19 158.44L130.76 159.164C128.797 162.472 127.102 165.617 125.89 168.201C125.285 169.493 124.796 170.651 124.455 171.623C124.118 172.582 123.908 173.404 123.892 174.006Z" fill="#121330" stroke="black"/>
<path d="M137.485 341.226C137.485 344.704 134.665 347.523 131.187 347.523C127.71 347.523 124.89 344.704 124.89 341.226C124.89 337.748 127.71 334.929 131.187 334.929C134.665 334.929 137.485 337.748 137.485 341.226Z" fill="#121330" stroke="black"/>
<path d="M180.309 158.742V158.865L180.366 158.974L258.706 308.212L258.709 308.216C260.781 312.075 261.877 316.438 261.877 320.834C261.877 335.55 249.904 347.523 235.188 347.523H161.777C158.299 347.523 155.479 344.703 155.479 341.226C155.479 337.749 158.299 334.929 161.777 334.929H235.187C242.959 334.929 249.282 328.606 249.282 320.834C249.282 318.471 248.717 316.223 247.603 314.156L247.598 314.149C247.599 314.15 246.854 312.731 245.561 310.268L241.103 301.776L226.811 274.55L212.522 247.328L207.813 238.358L206.493 235.845L206.146 235.182L206.057 235.013L206.034 234.97L206.029 234.959L206.027 234.956C206.027 234.956 206.027 234.955 205.584 235.188L206.027 234.955L205.886 234.688H205.584H56.7924H56.4902L56.3497 234.955L56.7924 235.188C56.3497 234.955 56.3495 234.956 56.3492 234.956L56.3478 234.959L56.3421 234.97L56.3196 235.013L56.2304 235.182L55.8829 235.845L54.5636 238.358L49.8547 247.328L35.565 274.55L21.2729 301.776L16.7607 310.372C15.5013 312.771 14.7771 314.15 14.7779 314.149L14.7737 314.156C13.6594 316.223 13.0947 318.472 13.0947 320.834C13.0947 328.606 19.4171 334.929 27.1893 334.929H100.601C104.079 334.929 106.898 337.749 106.898 341.226C106.898 344.703 104.079 347.523 100.601 347.523H27.1893C12.4733 347.523 0.5 335.55 0.5 320.834C0.5 316.438 1.59581 312.075 3.66855 308.216L3.67076 308.212L82.0107 158.974L82.068 158.865V158.742V99.2411V98.7411H81.568H74.7707C71.2927 98.7411 68.4733 95.9212 68.4733 92.4438V65.2545C68.4733 61.7771 71.2927 58.9572 74.7707 58.9572H187.606C191.084 58.9572 193.904 61.7771 193.904 65.2545V92.4438C193.904 95.9212 191.084 98.7411 187.606 98.7411H180.809H180.309V99.2411V158.742ZM81.568 71.5518H81.068V72.0518V85.6465V86.1465H81.568H180.809H181.309V85.6465V72.0518V71.5518H180.809H81.568ZM63.4862 221.361L63.1017 222.093H63.9289H198.448H199.275L198.891 221.361L168.436 163.343L168.436 163.343C167.962 162.441 167.714 161.437 167.714 160.417V99.2411V98.7411H167.214H95.1627H94.6627V99.2411V160.417C94.6627 161.436 94.4146 162.44 93.9409 163.344L63.4862 221.361Z" fill="#121330" stroke="black"/>
</svg>
