<svg width="332" height="383" viewBox="0 0 332 383" fill="none" xmlns="http://www.w3.org/2000/svg">
<path d="M94.6976 177.776C90.368 173.208 86.3732 168.979 82.9127 165.305C77.1911 158.085 78.8951 150.02 82.9127 145.35L165.775 49.0286M94.6976 177.776L60.3122 212.696C58.6383 214.359 55.7925 218.682 57.8013 222.673C58.5826 224.225 64.2007 230.104 71.76 237.639M94.6976 177.776C115.216 199.424 143.254 228.683 157.592 242.627M157.592 242.627C161.449 246.379 164.314 249.022 165.775 250.11C173.81 256.096 182.515 252.604 185.863 250.11C197.638 240.438 212.708 228.04 228.549 214.98M157.592 242.627C147.764 251.773 127.105 271.062 123.087 275.053C119.07 279.044 113.043 276.716 110.532 275.053C106.97 271.691 102.627 267.569 97.9775 263.124M135.642 120.408L228.549 214.98M228.549 214.98C271.26 179.766 319.571 139.74 323.967 135.373C327.9 131.467 328.121 122.276 323.967 117.913C294.672 87.1505 233.572 23.1305 223.528 13.1534C213.484 3.17631 205.251 3.43907 200.929 8.16486L165.775 49.0286M165.775 49.0286L268.724 150.339M71.76 237.639L25.1591 297.501L37.714 309.973L97.9775 263.124M71.76 237.639C79.5003 245.354 89.2757 254.805 97.9775 263.124M22.6481 319.95C13.4412 334.084 -0.895701 362.721 7.58221 372.33C14.4165 380.076 37.5526 379.702 42.7374 372.33C51.3232 360.121 32.9263 333.165 22.6481 319.95Z" stroke="#121330" stroke-width="10"/>
</svg>
