<svg width="200" height="200" viewBox="0 0 200 200" fill="none" xmlns="http://www.w3.org/2000/svg">
<g clip-path="url(#clip0)">
<path d="M192.255 137.999C192.313 137.88 192.365 137.758 192.407 137.633C204.256 110.284 202.139 76.7555 186.749 51.1289C194.965 41.3068 184.292 27.241 172.621 32.6834C170.57 30.5875 168.417 28.5787 166.186 26.6794C170.566 14.7724 155.947 5.00463 146.843 13.9009C120.381 0.538912 87.4689 0.708131 61.1533 14.3531C51.792 4.4325 36.0703 15.0694 41.7382 27.5165C38.4921 30.3549 35.4196 33.4212 32.5867 36.6637C30.1406 39.4634 34.572 43.3007 37.0012 40.5205C39.6368 37.5043 42.4924 34.6511 45.5086 32.0069C51.3414 36.2139 59.7988 34.0707 62.9987 27.649C73.5586 30.6887 83.643 35.0512 93.0399 40.6503C92.2532 43.4871 92.5744 46.6554 93.9243 49.2742C86.1902 55.955 79.2253 63.5123 73.1772 71.7947C67.5938 70.1076 61.4394 72.9315 59.0113 78.2191C46.6982 78.2851 34.3469 79.6096 22.2202 82.1729C21.1494 80.1774 19.526 78.5239 17.5579 77.4164C19.8363 68.5314 23.445 60.0795 28.3058 52.2646C30.2426 49.1499 25.3537 45.9121 23.3281 49.1683C18.1601 57.4768 14.3216 66.4617 11.894 75.9067C-2.14764 76.1451 -4.50498 95.5704 8.8625 99.3073C8.66553 126.954 20.6187 153.832 41.3462 172.142C37.0223 183.822 51.0596 193.456 60.3233 185.218C87.3584 199.594 121.526 199.596 148.563 185.223C157.985 194.541 173.075 184.131 167.768 171.949C178.451 162.455 186.749 150.843 192.255 137.999ZM188.562 131.444C180.448 123.383 171.569 116.071 162.089 109.652C163.436 105.435 162.265 100.69 159.121 97.5768C167.093 84.3227 173.351 70.1107 177.756 55.2644C179.224 55.2695 180.635 54.9987 181.935 54.5086C195.433 77.3054 197.902 106.698 188.562 131.444ZM53.6847 164.578C51.2179 140.416 55.5465 116.312 66.2596 94.5289C72.915 96.6057 80.1085 92.229 81.4009 85.3974C101.611 87.8888 121.076 93.8223 139.343 103.063C138.465 106.478 139.192 110.243 141.285 113.084C120.694 139.17 93.5151 158.799 62.4086 170.049C60.5238 167.064 57.3539 164.976 53.6847 164.578ZM144.831 106.033C144.831 102.712 147.513 100.01 150.811 100.01C158.743 100.34 158.741 111.727 150.811 112.056C147.513 112.056 144.831 109.354 144.831 106.033ZM183.762 43.3793C183.762 46.7007 181.079 49.4027 177.782 49.4027C169.849 49.0725 169.851 37.6849 177.782 37.3558C181.079 37.3558 183.762 40.0578 183.762 43.3793ZM168.142 36.4886C164.091 42.1807 165.971 50.4091 172.079 53.7923C167.812 68.1129 161.762 81.8215 154.066 94.6083C152.457 94.1455 150.671 94.0306 149.017 94.2839C140.972 77.1061 129.267 61.6337 114.969 49.275C116.32 46.6546 116.642 43.4918 115.854 40.6511C124.905 35.2588 134.599 31.0091 144.737 27.9882C148.107 34.4936 157.146 36.3303 162.757 31.4605C164.617 33.0605 166.417 34.7413 168.142 36.4886ZM98.467 43.833C98.467 40.5116 101.149 37.8095 104.447 37.8095C112.38 38.1398 112.377 49.527 104.447 49.8561C101.149 49.8561 98.467 47.1541 98.467 43.833ZM155.16 16.3286C158.458 16.3286 161.14 19.0306 161.14 22.352C160.811 30.3428 149.508 30.3409 149.181 22.352C149.181 19.0306 151.863 16.3286 155.16 16.3286ZM52.4021 28.3751C49.1048 28.3751 46.4223 25.6731 46.4223 22.3517C46.7514 14.3605 58.0543 14.3632 58.3821 22.3517C58.3821 25.6731 55.6993 28.3751 52.4021 28.3751ZM64.2329 21.9022C64.2024 21.0886 64.0906 20.2964 63.9046 19.532C88.4405 6.84376 119.092 6.62256 143.818 18.9419C143.5 20.0045 143.326 21.128 143.32 22.2915C132.657 25.446 122.46 29.902 112.941 35.5636C108.365 30.8305 100.53 30.829 95.9529 35.5632C86.0331 29.6628 75.3849 25.0763 64.2329 21.9022ZM97.805 53.6676C101.768 56.3727 107.124 56.3731 111.088 53.668C124.739 65.455 135.922 80.2099 143.626 96.5943C143.104 96.9957 142.616 97.44 142.167 97.9211C122.909 88.153 102.357 81.9423 81.0097 79.4435C80.4333 77.6989 79.4657 76.1326 78.2096 74.8504C83.9388 67.0675 90.5137 59.9592 97.805 53.6676ZM69.7694 77.153C73.0666 77.153 75.7491 79.855 75.7491 83.1764C75.4201 91.1676 64.1172 91.1653 63.7893 83.1764C63.7897 79.855 66.4722 77.153 69.7694 77.153ZM5.80719 87.7899C5.80719 84.4685 8.48967 81.7664 11.7869 81.7664C19.7194 82.0967 19.7171 93.4839 11.7869 93.813C8.49006 93.8134 5.80719 91.1113 5.80719 87.7899ZM14.7242 99.3049C14.7242 99.3049 23.6271 97.3634 23.6271 87.8673C23.6271 87.8673 46.472 84.2156 57.9659 84.0874C58.1817 86.927 59.3943 89.4895 61.2542 91.4232C49.8317 114.403 45.2245 139.88 47.8765 165.411C46.7346 165.887 45.6833 166.537 44.754 167.328C25.6315 150.198 14.7242 121.496 14.7242 99.3049ZM52.4021 182.415C49.1048 182.415 46.4223 179.713 46.4223 176.392C46.4223 173.07 49.1048 170.368 52.4021 170.368C55.6551 170.368 58.3821 173.186 58.3821 176.392C58.3821 179.713 55.6993 182.415 52.4021 182.415ZM104.447 190.183C90.221 190.183 76.1536 186.776 63.5806 180.308C64.091 178.845 64.3161 177.179 64.2169 175.627C96.3949 164.028 124.514 143.758 145.815 116.806C147.565 117.626 149.507 118.003 151.436 117.902C152.738 122.735 153.767 127.666 154.497 132.596C155.055 136.37 160.856 135.527 160.296 131.739C159.522 126.503 158.425 121.267 157.034 116.139C157.734 115.703 158.386 115.195 158.979 114.626C168.76 121.266 177.879 128.889 186.14 137.325C181.017 148.651 173.56 158.906 164.085 167.38C163.149 166.676 162.104 166.111 160.983 165.708C161.559 160.259 161.81 154.757 161.725 149.316C161.666 145.487 155.804 145.577 155.864 149.406C155.945 154.637 155.703 159.926 155.147 165.164C148.234 166.263 143.712 173.431 145.617 180.149C132.965 186.72 118.789 190.183 104.447 190.183ZM157.006 182.925C153.709 182.925 151.026 180.223 151.026 176.901C151.355 168.91 162.658 168.913 162.986 176.901C162.986 180.223 160.304 182.925 157.006 182.925Z" fill="#00296B"/>
</g>
<defs>
<clipPath id="clip0">
<rect width="200" height="200" fill="white"/>
</clipPath>
</defs>
</svg>
