<svg width="206" height="174" viewBox="0 0 206 174" fill="none" xmlns="http://www.w3.org/2000/svg">
<path d="M144.335 55.426C142.653 44.1146 136.252 34.3597 127.244 28.1517C128.286 14.0932 140.005 3.00494 154.325 3L144.335 55.426ZM144.335 55.426C147.436 56.662 150.797 57.3542 154.325 57.3542C169.337 57.3542 181.504 45.1873 181.504 30.1784C181.504 15.1671 169.337 3.0005 154.326 3L144.335 55.426ZM166.038 138.76V132.257C166.038 111.805 153.405 94.2694 135.546 87.0054C140.489 81.0086 143.728 73.567 144.537 65.4137H167.132C186.778 65.4137 202.769 81.4042 202.769 101.051V130.425L202.193 130.717C202.191 130.718 202.189 130.719 202.186 130.721C201.47 131.079 188.598 137.427 166.038 138.76ZM152.25 161.874L152.243 161.877C151.548 162.231 135.553 170.164 107.73 170.164C93.4874 170.164 76.1251 168.089 56.0891 161.829C56.0885 161.829 56.0879 161.829 56.0874 161.829L55.956 161.788V132.21C55.956 112.561 71.9467 96.5679 91.5958 96.5679H117.203C136.852 96.5679 152.842 112.561 152.835 132.209V132.21V161.578L152.25 161.874ZM73.2482 87.0057C55.3858 94.2726 42.7554 111.804 42.7504 132.256V132.257V138.502C31.0975 137.586 17.8535 135.267 3.1358 130.673C3.13409 130.673 3.13238 130.672 3.13068 130.672L3 130.63V101.051C3 81.4043 18.9903 65.4137 38.6398 65.4137H64.2447C64.2502 65.4137 64.2558 65.4137 64.2614 65.4137C65.0724 73.5635 68.307 81.0083 73.2482 87.0057ZM131.58 61.3326C131.58 76.3419 119.414 88.511 104.402 88.511C89.392 88.511 77.2185 76.3433 77.2185 61.3352C77.2185 46.3268 89.3923 34.1568 104.402 34.1568C119.411 34.1568 131.58 46.3239 131.58 61.3326ZM64.775 53.8355C60.8295 56.0714 56.2923 57.3594 51.4486 57.3594C36.4344 57.3594 24.2702 45.19 24.2702 30.1861C24.2702 15.1743 36.4346 3.0077 51.4486 3.0077C66.4524 3.0077 78.6219 15.1743 78.6219 30.1861C78.6219 30.2525 78.6211 30.3161 78.6195 30.3787C71.5729 36.2497 66.5549 44.4652 64.775 53.8355Z" stroke="#00296B" stroke-width="6" stroke-linecap="round" stroke-linejoin="round"/>
</svg>
