<svg width="200" height="200" viewBox="0 0 200 200" fill="none" xmlns="http://www.w3.org/2000/svg">
<g clip-path="url(#clip0)">
<path d="M182.146 89.5294C173.3 89.5294 165.939 95.9985 164.537 104.454H127.117C126.123 93.2977 119.524 83.7313 110.156 78.6064L114.828 67.8373C116.213 68.183 117.66 68.3693 119.15 68.3693C125.857 68.3693 131.937 64.6627 135.018 58.6955C135.76 57.258 135.197 55.4904 133.759 54.7482C132.322 54.0061 130.554 54.5693 129.812 56.0072C127.741 60.0181 123.655 62.5099 119.15 62.5099C112.536 62.5099 107.156 57.1291 107.156 50.5154C107.156 43.9018 112.536 38.5214 119.15 38.5214C123.655 38.5214 127.741 41.0127 129.812 45.0237C130.554 46.4619 132.322 47.0244 133.759 46.2826C135.197 45.5405 135.76 43.7729 135.018 42.3354C131.937 36.3686 125.857 32.662 119.15 32.662C109.306 32.662 101.296 40.671 101.296 50.5154C101.296 56.7881 104.551 62.3115 109.457 65.4966L104.781 76.2736C101.538 75.1966 98.0762 74.6048 94.4766 74.6048C87.7532 74.6048 81.4977 76.6423 76.2903 80.1286L48.4084 45.5057C52.4068 41.3479 54.8728 35.7061 54.8728 29.4956C54.8728 16.7476 44.5018 6.37656 31.7538 6.37656C19.0058 6.37656 8.63473 16.748 8.63473 29.496C8.63473 42.2436 19.0062 52.6151 31.7542 52.6151C36.1862 52.6151 40.3287 51.3592 43.8502 49.1881L71.7337 83.813C65.554 89.7778 61.699 98.1364 61.699 107.383C61.699 114.325 63.9318 121.132 68.0103 126.714L45.4861 146.482C40.6518 142.044 34.2108 139.33 27.1468 139.33C12.1781 139.33 0 151.508 0 166.476C0 181.445 12.1781 193.623 27.1468 193.623C42.1151 193.623 54.2931 181.445 54.2931 166.476C54.2931 160.678 52.4596 155.302 49.3502 150.887L71.8825 131.111C76.0903 135.108 81.3188 137.963 86.9719 139.288C88.5477 139.656 90.1231 138.68 90.493 137.104C90.8621 135.529 89.8844 133.953 88.3094 133.583C76.2282 130.751 67.5583 120.059 67.5583 107.383C67.5583 92.5403 79.6337 80.4649 94.4766 80.4649C109.319 80.4649 121.395 92.5407 121.395 107.383C121.395 120.184 112.587 130.783 100.644 133.583C99.0687 133.953 98.091 135.529 98.4602 137.104C98.8297 138.68 100.407 139.657 101.981 139.288C105.795 138.394 109.414 136.799 112.659 134.633L126.674 152.036C125.099 154.098 124.16 156.671 124.16 159.459C124.16 166.215 129.657 171.712 136.413 171.712C143.169 171.712 148.666 166.216 148.666 159.459C148.666 152.703 143.169 147.206 136.413 147.206C134.563 147.206 132.809 147.621 131.235 148.358L117.228 130.965C123.07 125.344 126.43 117.93 127.119 110.313H164.537C165.94 118.768 173.3 125.237 182.146 125.237C191.991 125.237 200 117.228 200 107.384C200 97.5383 191.991 89.5294 182.146 89.5294ZM31.7542 46.7557C22.237 46.7557 14.4941 39.0131 14.4941 29.496C14.4941 19.9788 22.2366 12.2363 31.7542 12.2363C41.2709 12.2363 49.0139 19.9788 49.0139 29.496C49.0139 39.0131 41.2709 46.7557 31.7542 46.7557ZM27.1468 187.764C15.4089 187.764 5.85935 178.214 5.85935 166.476C5.85935 154.738 15.4089 145.189 27.1468 145.189C38.8846 145.189 48.4338 154.738 48.4338 166.476C48.4338 178.214 38.8846 187.764 27.1468 187.764ZM136.414 153.065C139.939 153.065 142.807 155.933 142.807 159.459C142.807 162.984 139.939 165.853 136.414 165.853C132.889 165.853 130.02 162.985 130.02 159.459C130.02 155.933 132.888 153.065 136.414 153.065ZM182.146 119.377C175.533 119.377 170.152 113.997 170.152 107.383C170.152 100.769 175.533 95.3883 182.146 95.3883C188.76 95.3883 194.141 100.769 194.141 107.383C194.141 113.996 188.76 119.377 182.146 119.377Z" fill="#00296B"/>
</g>
<defs>
<clipPath id="clip0">
<rect width="200" height="200" fill="white"/>
</clipPath>
</defs>
</svg>
